<?xml version="1.0" encoding="iso-8859-1"?>
<!-- Generator: Adobe Illustrator 19.0.0, SVG Export Plug-In . SVG Version: 6.00 Build 0)  -->
<!-- License: CC0. Made by SVG Repo: https://www.svgrepo.com/svg/247621/list -->
<svg version="1.1" id="Layer_1" xmlns="http://www.w3.org/2000/svg" xmlns:xlink="http://www.w3.org/1999/xlink" x="0px" y="0px"
	 viewBox="0 0 512 512" style="enable-background:new 0 0 512 512;" xml:space="preserve">
<g>
	<g>
		<path d="M435.478,0C427.055,0,80.789,0,76.522,0c-9.22,0-16.696,7.475-16.696,16.696v478.609c0,9.22,7.475,16.696,16.696,16.696
			h358.957c9.22,0,16.696-7.475,16.696-16.696V16.696C452.174,7.475,444.699,0,435.478,0z M213.27,33.391h85.461v21.484H213.27
			V33.391z M418.783,478.609H93.217V33.391h86.662v38.18c0,9.22,7.475,16.696,16.696,16.696h118.852
			c9.22,0,16.696-7.475,16.696-16.696v-38.18h86.66V478.609z" fill="#ffffff"/>
	</g>
</g>
<g>
	<g>
		<path d="M351.722,158.743H160.278c-9.22,0-16.696,7.475-16.696,16.696s7.475,16.696,16.696,16.696h191.443
			c9.22,0,16.696-7.475,16.696-16.696S360.942,158.743,351.722,158.743z" fill="#ffffff"/>
	</g>
</g>
<g>
	<g>
		<path d="M351.722,266.742H160.278c-9.22,0-16.696,7.475-16.696,16.696s7.475,16.696,16.696,16.696h191.443
			c9.22,0,16.696-7.475,16.696-16.696S360.942,266.742,351.722,266.742z" fill="#ffffff"/>
	</g>
</g>
<g>
	<g>
		<path d="M351.722,374.742H160.278c-9.22,0-16.696,7.475-16.696,16.696s7.475,16.696,16.696,16.696h191.443
			c9.22,0,16.696-7.475,16.696-16.696S360.942,374.742,351.722,374.742z" fill="#ffffff"/>
	</g>
</g>
</svg>
